<?xml version="1.0" encoding="iso-8859-1"?>
<!-- Generator: Adobe Illustrator 19.0.0, SVG Export Plug-In . SVG Version: 6.00 Build 0)  -->
<svg version="1.1" id="Layer_1" xmlns="http://www.w3.org/2000/svg" xmlns:xlink="http://www.w3.org/1999/xlink" x="0px" y="0px"
	 viewBox="0 0 496 496" style="enable-background:new 0 0 496 496;" xml:space="preserve">
<path style="fill:#F9BA48;" d="M96,320H24.016C10.776,320,0,309.224,0,295.976v-111.96C0,170.776,10.776,160,24.016,160H96V320z"/>
<g>
	<rect x="80" y="168" style="fill:#333333;" width="16" height="144"/>
	<path style="fill:#333333;" d="M376,104h-16c-4.416,0-8-3.584-8-8h-16c0,13.232,10.768,24,24,24v8h16v-8c13.232,0,24-10.768,24-24
		s-10.768-24-24-24h-16c-4.416,0-8-3.584-8-8s3.584-8,8-8h16c4.416,0,8,3.584,8,8h16c0-13.232-10.768-24-24-24v-8h-16v8
		c-13.232,0-24,10.768-24,24s10.768,24,24,24h16c4.416,0,8,3.584,8,8S380.416,104,376,104z"/>
	<path style="fill:#333333;" d="M496,136v-4c0-9.664-6.88-17.736-16-19.592V104h-16v8.408c-9.12,1.856-16,9.936-16,19.592
		c0,11.032,8.968,20,20,20h8c2.2,0,4,1.8,4,4s-1.8,4-4,4h-8c-2.2,0-4-1.8-4-4v-4h-16v4c0,9.664,6.88,17.736,16,19.592V184h16v-8.408
		c9.12-1.856,16-9.936,16-19.592c0-11.032-8.968-20-20-20h-8c-2.2,0-4-1.8-4-4s1.8-4,4-4h8c2.2,0,4,1.8,4,4v4H496z"/>
	<path style="fill:#333333;" d="M416,260c0-11.032-8.968-20-20-20h-8c-2.2,0-4-1.8-4-4s1.8-4,4-4h8c2.2,0,4,1.8,4,4v4h16v-4
		c0-9.664-6.88-17.736-16-19.592V208h-16v8.408c-9.12,1.856-16,9.936-16,19.592c0,11.032,8.968,20,20,20h8c2.2,0,4,1.8,4,4
		s-1.8,4-4,4h-8c-2.2,0-4-1.8-4-4v-4h-16v4c0,9.664,6.88,17.736,16,19.592V288h16v-8.408C409.12,277.736,416,269.664,416,260z"/>
	<path style="fill:#333333;" d="M432,376h16c4.416,0,8,3.584,8,8h16c0-13.232-10.768-24-24-24v-8h-16v8c-13.232,0-24,10.768-24,24
		s10.768,24,24,24h16c4.416,0,8,3.584,8,8s-3.584,8-8,8h-16c-4.416,0-8-3.584-8-8h-16c0,13.232,10.768,24,24,24v8h16v-8
		c13.232,0,24-10.768,24-24s-10.768-24-24-24h-16c-4.416,0-8-3.584-8-8S427.584,376,432,376z"/>
	
		<rect x="333.522" y="155.967" transform="matrix(-0.9192 0.3937 -0.3937 -0.9192 763.1268 171.3758)" style="fill:#333333;" width="60.926" height="15.991"/>
	
		<rect x="355.98" y="301.562" transform="matrix(-0.3939 0.9191 -0.9191 -0.3939 812.5308 128.2693)" style="fill:#333333;" width="15.991" height="60.925"/>
	<rect x="32" y="200" style="fill:#333333;" width="32" height="16"/>
	<rect x="32" y="232" style="fill:#333333;" width="32" height="16"/>
	<rect x="32" y="264" style="fill:#333333;" width="32" height="16"/>
</g>
<path style="fill:#F9BA48;" d="M320,370.608L264,354.6V125.392l56-16V370.608z"/>
<path style="fill:#333333;" d="M280,120.824L142.88,160H80v144v16v120c0,13.232,10.768,24,24,24h16c13.232,0,24-10.768,24-24v-88
	c14.488,0,26.608-9.728,30.536-22.952L280,359.176V120.824z M128,440c0,4.416-3.584,8-8,8h-16c-4.416,0-8-3.584-8-8V320h32V440z
	 M144,336v-15.68l15.224,4.352C157.208,331.208,151.184,336,144,336z M264,337.96l-117.808-33.656L144,304.288V304H96V176h48
	l120-33.96V337.96z"/>
<g>
</g>
<g>
</g>
<g>
</g>
<g>
</g>
<g>
</g>
<g>
</g>
<g>
</g>
<g>
</g>
<g>
</g>
<g>
</g>
<g>
</g>
<g>
</g>
<g>
</g>
<g>
</g>
<g>
</g>
</svg>
