<?xml version="1.0" encoding="iso-8859-1"?>
<!-- Generator: Adobe Illustrator 19.0.0, SVG Export Plug-In . SVG Version: 6.00 Build 0)  -->
<svg version="1.1" id="Capa_1" xmlns="http://www.w3.org/2000/svg" xmlns:xlink="http://www.w3.org/1999/xlink" x="0px" y="0px"
	 viewBox="0 0 512 512" style="enable-background:new 0 0 512 512;" xml:space="preserve">
<g>
	<g>
		<path d="M492,401.881h-2.16c3.816-4.252,6.16-9.848,6.16-16c0-12-8.86-21.94-20.372-23.696
			c-1.744-9.264-9.868-16.304-19.628-16.304h-2.16c3.816-4.252,6.16-9.848,6.16-16c0-13.236-10.764-24-24-24
			c-13.236,0-24,10.764-24,24c0,6.152,2.344,11.748,6.16,16H416c-6.564,0-12.352,3.224-16,8.124c-3.648-4.9-9.436-8.124-16-8.124
			h-2.16c3.816-4.252,6.16-9.848,6.16-16c0-13.236-10.764-24-24-24c-13.236,0-24,10.764-24,24c0,6.152,2.344,11.748,6.16,16H344
			c-6.564,0-12.352,3.224-16,8.124c-3.648-4.9-9.436-8.124-16-8.124h-2.16c3.816-4.252,6.16-9.848,6.16-16c0-13.236-10.764-24-24-24
			c-13.236,0-24,10.764-24,24c0,6.152,2.344,11.748,6.16,16H272c-6.564,0-12.352,3.224-16,8.124c-3.648-4.9-9.436-8.124-16-8.124
			h-2.16c3.816-4.252,6.16-9.848,6.16-16c0-13.236-10.764-24-24-24c-13.236,0-24,10.764-24,24c0,6.152,2.344,11.748,6.16,16H200
			c-6.564,0-12.352,3.224-16,8.124c-3.648-4.9-9.436-8.124-16-8.124h-2.16c3.816-4.252,6.16-9.848,6.16-16c0-13.236-10.764-24-24-24
			c-13.236,0-24,10.764-24,24c0,6.152,2.344,11.748,6.16,16H128c-6.564,0-12.352,3.224-16,8.124c-3.648-4.9-9.436-8.124-16-8.124
			h-2.16c3.816-4.252,6.16-9.848,6.16-16c0-13.236-10.764-24-24-24s-24,10.764-24,24c0,6.152,2.344,11.748,6.16,16H56
			c-9.76,0-17.884,7.04-19.628,16.304C24.86,363.941,16,373.881,16,385.881c0,6.152,2.344,11.748,6.16,16H20
			c-11.028,0-20,8.972-20,20v28c0,2.208,1.788,4,4,4h12v48c0,2.208,1.788,4,4,4h20h20c2.212,0,4-1.792,4-4v-48h12h12v48
			c0,2.208,1.788,4,4,4h20h20c2.212,0,4-1.792,4-4v-48h12h12v48c0,2.208,1.788,4,4,4h20h20c2.212,0,4-1.792,4-4v-48h12h12v48
			c0,2.208,1.788,4,4,4h20h20c2.212,0,4-1.792,4-4v-48h12h12v48c0,2.208,1.788,4,4,4h20h20c2.212,0,4-1.792,4-4v-48h12h12v48
			c0,2.208,1.788,4,4,4h20h20c2.212,0,4-1.792,4-4v-48h12h12v48c0,2.208,1.788,4,4,4h20h20c2.212,0,4-1.792,4-4v-48h12
			c2.212,0,4-1.792,4-4v-28C512,410.853,503.028,401.881,492,401.881z M472,369.881c8.824,0,16,7.176,16,16c0,8.824-7.176,16-16,16
			c-8.824,0-16-7.176-16-16C456,377.057,463.176,369.881,472,369.881z M436,313.881c8.824,0,16,7.176,16,16c0,8.824-7.176,16-16,16
			c-8.824,0-16-7.176-16-16C420,321.057,427.176,313.881,436,313.881z M400,369.881c8.824,0,16,7.176,16,16c0,8.824-7.176,16-16,16
			c-8.824,0-16-7.176-16-16C384,377.057,391.176,369.881,400,369.881z M364,313.881c8.824,0,16,7.176,16,16c0,8.824-7.176,16-16,16
			c-8.824,0-16-7.176-16-16C348,321.057,355.176,313.881,364,313.881z M328,369.881c8.824,0,16,7.176,16,16c0,8.824-7.176,16-16,16
			c-8.824,0-16-7.176-16-16C312,377.057,319.176,369.881,328,369.881z M292,313.881c8.824,0,16,7.176,16,16c0,8.824-7.176,16-16,16
			c-8.824,0-16-7.176-16-16C276,321.057,283.176,313.881,292,313.881z M256,369.881c8.824,0,16,7.176,16,16c0,8.824-7.176,16-16,16
			c-8.824,0-16-7.176-16-16C240,377.057,247.176,369.881,256,369.881z M220,313.881c8.824,0,16,7.176,16,16c0,8.824-7.176,16-16,16
			c-8.824,0-16-7.176-16-16C204,321.057,211.176,313.881,220,313.881z M184,369.881c8.824,0,16,7.176,16,16c0,8.824-7.176,16-16,16
			c-8.824,0-16-7.176-16-16C168,377.057,175.176,369.881,184,369.881z M148,313.881c8.824,0,16,7.176,16,16c0,8.824-7.176,16-16,16
			c-8.824,0-16-7.176-16-16C132,321.057,139.176,313.881,148,313.881z M112,369.881c8.824,0,16,7.176,16,16c0,8.824-7.176,16-16,16
			s-16-7.176-16-16C96,377.057,103.176,369.881,112,369.881z M76,313.881c8.824,0,16,7.176,16,16c0,8.824-7.176,16-16,16
			s-16-7.176-16-16C60,321.057,67.176,313.881,76,313.881z M40,369.881c8.824,0,16,7.176,16,16c0,8.824-7.176,16-16,16
			s-16-7.176-16-16C24,377.057,31.176,369.881,40,369.881z M72,445.881h-8v-24h-8v76H44v-44h-8v44H24v-48v-28h-8v24H8v-24
			c0-6.616,5.384-12,12-12h40c6.616,0,12,5.384,12,12V445.881z M76,410.005c-3.648-4.9-9.436-8.124-16-8.124h-2.16
			c3.816-4.252,6.16-9.848,6.16-16c0-11.66-8.364-21.396-19.404-23.548c1.524-4.88,6.028-8.452,11.404-8.452h40
			c5.376,0,9.88,3.572,11.404,8.452C96.364,364.485,88,374.221,88,385.881c0,6.152,2.344,11.748,6.16,16H92
			C85.436,401.881,79.648,405.105,76,410.005z M144,445.881h-8v-24h-8v76h-12v-44h-8v44H96v-48v-28h-8v24h-8v-24
			c0-6.616,5.384-12,12-12h40c6.616,0,12,5.384,12,12V445.881z M148,410.005c-3.648-4.9-9.436-8.124-16-8.124h-2.16
			c3.816-4.252,6.16-9.848,6.16-16c0-11.66-8.364-21.396-19.404-23.548c1.524-4.88,6.028-8.452,11.404-8.452h40
			c5.376,0,9.88,3.572,11.404,8.452C168.364,364.485,160,374.221,160,385.881c0,6.152,2.344,11.748,6.16,16H164
			C157.436,401.881,151.648,405.105,148,410.005z M216,445.881h-8v-24h-8v76h-12v-44h-8v44h-12v-48v-28h-8v24h-8v-24
			c0-6.616,5.384-12,12-12h40c6.616,0,12,5.384,12,12V445.881z M220,410.005c-3.648-4.9-9.436-8.124-16-8.124h-2.16
			c3.816-4.252,6.16-9.848,6.16-16c0-11.66-8.364-21.396-19.404-23.548c1.524-4.88,6.028-8.452,11.404-8.452h40
			c5.376,0,9.88,3.572,11.404,8.452C240.364,364.485,232,374.221,232,385.881c0,6.152,2.344,11.748,6.16,16H236
			C229.436,401.881,223.648,405.105,220,410.005z M288,445.881h-8v-24h-8v76h-12v-44h-8v44h-12v-48v-28h-8v24h-8v-24
			c0-6.616,5.384-12,12-12h40c6.616,0,12,5.384,12,12V445.881z M292,410.005c-3.648-4.9-9.436-8.124-16-8.124h-2.16
			c3.816-4.252,6.16-9.848,6.16-16c0-11.66-8.364-21.396-19.404-23.548c1.524-4.88,6.028-8.452,11.404-8.452h40
			c5.376,0,9.88,3.572,11.404,8.452C312.364,364.485,304,374.221,304,385.881c0,6.152,2.344,11.748,6.16,16H308
			C301.436,401.881,295.648,405.105,292,410.005z M360,445.881h-8v-24h-8v76h-12v-44h-8v44h-12v-48v-28h-8v24h-8v-24
			c0-6.616,5.384-12,12-12h40c6.616,0,12,5.384,12,12V445.881z M364,410.005c-3.648-4.9-9.436-8.124-16-8.124h-2.16
			c3.816-4.252,6.16-9.848,6.16-16c0-11.66-8.364-21.396-19.404-23.548c1.524-4.88,6.028-8.452,11.404-8.452h40
			c5.376,0,9.88,3.572,11.404,8.452C384.364,364.485,376,374.221,376,385.881c0,6.152,2.344,11.748,6.16,16H380
			C373.436,401.881,367.648,405.105,364,410.005z M432,445.881h-8v-24h-8v76h-12v-44h-8v44h-12v-48v-28h-8v24h-8v-24
			c0-6.616,5.384-12,12-12h40c6.616,0,12,5.384,12,12V445.881z M436,410.005c-3.648-4.9-9.436-8.124-16-8.124h-2.16
			c3.816-4.252,6.16-9.848,6.16-16c0-11.66-8.364-21.396-19.404-23.548c1.524-4.88,6.028-8.452,11.404-8.452h40
			c5.376,0,9.88,3.572,11.404,8.452C456.364,364.485,448,374.221,448,385.881c0,6.152,2.344,11.748,6.16,16H452
			C445.436,401.881,439.648,405.105,436,410.005z M504,445.881h-8v-24h-8v76h-12v-44h-8v44h-12v-48v-28h-8v24h-8v-24
			c0-6.616,5.384-12,12-12h40c6.616,0,12,5.384,12,12V445.881z"/>
	</g>
</g>
<g>
	<g>
		<path d="M413.804,289.881L295,155.233c-0.76-0.86-1.852-1.352-3-1.352h-0.816L280,105.429V81.881h28c2.212,0,4-1.792,4-4v-10.74
			l66.928,18.592c0.352,0.1,0.712,0.148,1.072,0.148c0.864,0,1.716-0.28,2.42-0.816c0.996-0.756,1.58-1.936,1.58-3.184v-68
			c0-1.248-0.584-2.428-1.58-3.184c-1.004-0.756-2.296-1.008-3.492-0.668l-71.472,19.852H292c-2.212,0-4,1.792-4,4v24h-14.16
			c3.816-4.252,6.16-9.848,6.16-16c0-13.236-10.764-24-24-24c-13.236,0-24,10.764-24,24c0,6.152,2.344,11.748,6.16,16H228
			c-2.208,0-4-1.796-4-4v-32c0-2.208-1.788-4-4-4h-16c-2.212,0-4,1.792-4,4v32c0,15.44,12.564,28,28,28h4v23.548l-11.184,48.452H220
			c-1.148,0-2.24,0.492-3,1.352L98.196,289.881H88v8h12h312h12v-8H413.804z M312,36.921l64-17.78v57.48l-64-17.78V36.921z
			 M296,37.881h8v20h-8V37.881z M256,25.881c8.824,0,16,7.176,16,16s-7.176,16-16,16c-8.824,0-16-7.176-16-16
			S247.176,25.881,256,25.881z M239.9,106.785c0.064-0.3,0.1-0.6,0.1-0.904v-28c0-2.208-1.788-4-4-4h-8c-11.028,0-20-8.972-20-20
			v-28h8v28c0,6.616,5.384,12,12,12h76v8h-28c-2.212,0-4,1.792-4,4v28c0,0.304,0.036,0.604,0.1,0.9l10.872,47.1h-11.848
			l-11.244-44.972c-0.448-1.78-2.044-3.028-3.88-3.028s-3.432,1.248-3.88,3.028l-11.244,44.972h-11.848L239.9,106.785z
			 M262.88,153.881h-13.76l6.88-27.508L262.88,153.881z M221.804,161.881H224h20h24h20h2.196l37.568,42.58L312,220.225
			l-25.172-25.172c-1.564-1.564-4.092-1.564-5.656,0L256,220.225l-25.172-25.172c-1.564-1.564-4.092-1.564-5.656,0L200,220.225
			l-15.764-15.764L221.804,161.881z M108.864,289.881l70.068-79.412l18.24,18.24c1.564,1.564,4.092,1.564,5.656,0L228,203.537
			l25.172,25.172c1.564,1.564,4.092,1.564,5.656,0L284,203.537l25.172,25.172c0.78,0.78,1.804,1.172,2.828,1.172
			s2.048-0.392,2.828-1.172l18.24-18.24l70.068,79.412H108.864z"/>
	</g>
</g>
<g>
	<g>
		<rect x="400" y="41.881" width="48" height="8"/>
	</g>
</g>
<g>
	<g>
		<rect x="398.602" y="13.877" transform="matrix(0.9398 -0.3417 0.3417 0.9398 19.293 145.2786)" width="46.82" height="8"/>
	</g>
</g>
<g>
	<g>
		<rect x="417.985" y="50.479" transform="matrix(0.3417 -0.9398 0.9398 0.3417 208.3506 445.2256)" width="8" height="46.82"/>
	</g>
</g>
<g>
	<g>
		<path d="M100,165.881H20c-6.616,0-12,5.384-12,12v56c0,6.616,5.384,12,12,12h18.344l18.828,18.828
			c0.78,0.78,1.804,1.172,2.828,1.172s2.048-0.392,2.828-1.172l18.828-18.828H100c6.616,0,12-5.384,12-12v-56
			C112,171.265,106.616,165.881,100,165.881z M104,233.881c0,2.204-1.792,4-4,4H80c-1.064,0-2.08,0.42-2.828,1.172L60,256.225
			l-17.172-17.172c-0.748-0.752-1.764-1.172-2.828-1.172H20c-2.208,0-4-1.796-4-4v-56c0-2.204,1.792-4,4-4h80c2.208,0,4,1.796,4,4
			V233.881z"/>
	</g>
</g>
<g>
	<g>
		<path d="M87.12,187.021c-3.192-3.312-7.444-5.14-11.976-5.14c-4.528,0-8.78,1.828-11.968,5.14l-3.176,3.3l-3.176-3.3
			c-3.188-3.312-7.44-5.14-11.968-5.14c-4.532,0-8.784,1.828-11.972,5.14c-6.484,6.74-6.484,17.7,0,24.44l24.232,25.192
			c0.756,0.784,1.8,1.228,2.884,1.228s2.128-0.444,2.884-1.228l24.236-25.192C93.604,204.721,93.604,193.761,87.12,187.021z
			 M81.356,205.913L60,228.113l-21.352-22.196c-3.54-3.684-3.54-9.668,0-13.348c1.668-1.732,3.872-2.688,6.208-2.688
			c2.332,0,4.536,0.956,6.204,2.688l6.06,6.296c1.508,1.568,4.256,1.568,5.764,0l6.06-6.296c3.336-3.472,9.076-3.464,12.412,0
			C84.896,196.249,84.896,202.237,81.356,205.913z"/>
	</g>
</g>
<g>
	<g>
		<path d="M492,201.881h-72c-6.616,0-12,5.384-12,12v52c0,6.616,5.384,12,12,12h14.344l18.828,18.828
			c0.78,0.78,1.804,1.172,2.828,1.172s2.048-0.392,2.828-1.172l18.828-18.828H492c6.616,0,12-5.384,12-12v-52
			C504,207.265,498.616,201.881,492,201.881z M496,265.881c0,2.204-1.792,4-4,4h-16c-1.064,0-2.08,0.42-2.828,1.172L456,288.225
			l-17.172-17.172c-0.748-0.752-1.764-1.172-2.828-1.172h-16c-2.208,0-4-1.796-4-4v-52c0-2.204,1.792-4,4-4h72c2.208,0,4,1.796,4,4
			V265.881z"/>
	</g>
</g>
<g>
	<g>
		<path d="M479.616,226.329c-2.836-2.868-6.608-4.448-10.628-4.448c-0.004,0-0.004,0-0.004,0c-4.02,0-7.796,1.58-10.636,4.448
			L456,228.705l-2.348-2.376c-2.84-2.868-6.616-4.448-10.636-4.448c0,0,0,0-0.004,0c-4.02,0-7.792,1.58-10.628,4.448
			c-5.828,5.892-5.828,15.48,0,21.372l20.772,20.992c0.752,0.76,1.776,1.188,2.844,1.188s2.092-0.428,2.844-1.188l20.772-20.996
			C485.444,241.805,485.444,232.221,479.616,226.329z M473.928,242.073L456,260.193l-17.928-18.12c-2.76-2.788-2.76-7.328,0-10.116
			c1.324-1.336,3.08-2.076,4.944-2.076s3.624,0.736,4.948,2.076l5.192,5.248c1.5,1.52,4.188,1.52,5.688,0l5.192-5.248
			c1.324-1.34,3.084-2.076,4.948-2.076c1.864,0,3.62,0.736,4.944,2.076C476.684,234.749,476.684,239.285,473.928,242.073z"/>
	</g>
</g>
<g>
	<g>
		<path d="M198.828,91.053L168,60.225V29.881c0-11.028-8.972-20-20-20H28c-11.028,0-20,8.972-20,20v48c0,11.028,8.972,20,20,20h168
			c1.616,0,3.08-0.976,3.696-2.468C200.316,93.917,199.972,92.197,198.828,91.053z M28,89.881c-6.616,0-12-5.384-12-12v-48
			c0-6.616,5.384-12,12-12h120c6.616,0,12,5.384,12,12v32c0,1.06,0.42,2.08,1.172,2.828l25.172,25.172H28z"/>
	</g>
</g>
<g>
	<g>
		<rect x="28" y="29.881" width="40" height="8"/>
	</g>
</g>
<g>
	<g>
		<rect x="76" y="29.881" width="40" height="8"/>
	</g>
</g>
<g>
	<g>
		<rect x="124" y="29.881" width="24" height="8"/>
	</g>
</g>
<g>
	<g>
		<rect x="28" y="49.881" width="24" height="8"/>
	</g>
</g>
<g>
	<g>
		<rect x="60" y="49.881" width="88" height="8"/>
	</g>
</g>
<g>
	<g>
		<rect x="28" y="69.881" width="60" height="8"/>
	</g>
</g>
<g>
	<g>
		<rect x="96" y="69.881" width="52" height="8"/>
	</g>
</g>
<g>
	<g>
		<path d="M427.472,123.897l-16-28c-1.42-2.492-5.524-2.492-6.944,0l-16,28c-0.708,1.24-0.704,2.76,0.012,3.992
			c0.716,1.232,2.036,1.992,3.46,1.992h32c1.424,0,2.744-0.76,3.46-1.992S428.18,125.137,427.472,123.897z M398.892,121.881
			L408,105.945l9.104,15.936H398.892z"/>
	</g>
</g>
<g>
	<g>
		<path d="M386.828,163.053l-16-16c-1.564-1.564-4.092-1.564-5.656,0l-16,16c-1.564,1.564-1.564,4.092,0,5.656l16,16
			c0.78,0.78,1.804,1.172,2.828,1.172s2.048-0.392,2.828-1.172l16-16C388.392,167.145,388.392,164.617,386.828,163.053z
			 M368,176.225l-10.344-10.344L368,155.537l10.344,10.344L368,176.225z"/>
	</g>
</g>
<g>
	<g>
		<polygon points="462.828,156.709 457.172,151.053 448,160.225 438.828,151.053 433.172,156.709 442.344,165.881 433.172,175.053 
			438.828,180.709 448,171.537 457.172,180.709 462.828,175.053 453.656,165.881 		"/>
	</g>
</g>
<g>
	<g>
		<rect x="252" y="273.881" width="8" height="8"/>
	</g>
</g>
<g>
	<g>
		<rect x="268" y="273.881" width="8" height="8"/>
	</g>
</g>
<g>
	<g>
		<rect x="236" y="273.881" width="8" height="8"/>
	</g>
</g>
<g>
</g>
<g>
</g>
<g>
</g>
<g>
</g>
<g>
</g>
<g>
</g>
<g>
</g>
<g>
</g>
<g>
</g>
<g>
</g>
<g>
</g>
<g>
</g>
<g>
</g>
<g>
</g>
<g>
</g>
</svg>
