<?xml version="1.0" encoding="iso-8859-1"?>
<!-- Generator: Adobe Illustrator 19.0.0, SVG Export Plug-In . SVG Version: 6.00 Build 0)  -->
<svg version="1.1" id="Layer_1" xmlns="http://www.w3.org/2000/svg" xmlns:xlink="http://www.w3.org/1999/xlink" x="0px" y="0px"
	 viewBox="0 0 512.288 512.288" style="enable-background:new 0 0 512.288 512.288;" xml:space="preserve">
<g>
	<path style="fill:#CDD6E0;" d="M487.578,276.686c-3.2,1.067-7.467,1.067-10.667-1.067c-7.467-3.2-10.667-11.733-6.4-19.2
		c33.067-69.333,3.2-151.467-66.133-184.533c-7.467-3.2-10.667-11.733-6.4-19.2c3.2-7.467,11.733-10.667,19.2-6.4
		c83.2,39.467,118.4,138.667,78.933,221.867C493.978,272.419,490.778,275.619,487.578,276.686z"/>
	<path style="fill:#CDD6E0;" d="M443.845,255.353c-3.2,1.067-7.467,1.067-10.667-1.067c-7.467-3.2-10.667-11.733-6.4-19.2
		c10.667-21.333,11.733-45.867,3.2-68.267s-24.533-40.533-45.867-50.133c-7.467-3.2-10.667-11.733-6.4-19.2
		c3.2-7.467,11.733-10.667,19.2-6.4c58.667,27.733,84.267,98.133,56.533,156.8C450.245,252.153,447.045,254.286,443.845,255.353z"/>
</g>
<path style="fill:#40596B;" d="M193.178,349.219L89.712,385.486c-22.4,7.467-46.933-3.2-54.4-25.6L2.245,268.153
	c-7.467-22.4,4.267-46.933,26.667-54.4l103.467-36.267L193.178,349.219z"/>
<path style="fill:#FFD15C;" d="M411.845,364.153L411.845,364.153c-13.867,5.333-28.8-2.133-34.133-16l-102.4-288
	c-5.333-13.867,2.133-28.8,16-34.133l0,0c13.867-5.333,28.8,2.133,34.133,16l102.4,288
	C433.178,343.886,425.712,359.886,411.845,364.153z"/>
<polygon style="fill:#F2F2F2;" points="377.712,348.153 193.178,349.219 131.312,176.419 274.245,60.153 "/>
<path style="fill:#FF7058;" d="M225.178,430.286l-55.467-73.6l-71.467,25.6l69.333,91.733c9.6,12.8,25.6,17.067,40.533,11.733
	C231.578,478.286,240.112,449.486,225.178,430.286z"/>
<g>
	<polygon style="opacity:0.1;fill:#231F20;enable-background:new    ;" points="169.712,356.686 98.245,382.286 107.845,395.086 
		178.245,369.486 	"/>
	<polygon style="opacity:0.1;fill:#231F20;enable-background:new    ;" points="361.712,348.153 377.712,348.153 274.245,60.153 
		262.512,69.753 	"/>
</g>
<g>
	<path style="fill:#334A5E;" d="M118.512,228.686l-87.467,30.933c-4.267,2.133-6.4,6.4-5.333,10.667
		c2.133,4.267,6.4,6.4,10.667,5.333l87.467-30.933c4.267-2.133,6.4-6.4,5.333-10.667
		C128.112,229.753,122.778,227.619,118.512,228.686z"/>
	<path style="fill:#334A5E;" d="M131.312,264.953l-87.467,30.933c-4.267,2.133-6.4,6.4-5.333,10.667
		c2.133,4.267,6.4,6.4,10.667,5.333l87.467-30.933c4.267-2.133,6.4-6.4,5.333-10.667
		C140.912,264.953,135.578,262.819,131.312,264.953z"/>
	<path style="fill:#334A5E;" d="M144.112,300.153l-87.467,30.933c-4.267,2.133-6.4,6.4-5.333,10.667
		c2.133,4.267,6.4,6.4,10.667,5.333l87.467-30.933c4.267-2.133,6.4-6.4,5.333-10.667S148.378,299.086,144.112,300.153z"/>
</g>
<g>
</g>
<g>
</g>
<g>
</g>
<g>
</g>
<g>
</g>
<g>
</g>
<g>
</g>
<g>
</g>
<g>
</g>
<g>
</g>
<g>
</g>
<g>
</g>
<g>
</g>
<g>
</g>
<g>
</g>
</svg>
