<?xml version="1.0" encoding="iso-8859-1"?>
<!-- Generator: Adobe Illustrator 19.0.0, SVG Export Plug-In . SVG Version: 6.00 Build 0)  -->
<svg version="1.1" id="Capa_1" xmlns="http://www.w3.org/2000/svg" xmlns:xlink="http://www.w3.org/1999/xlink" x="0px" y="0px"
	 viewBox="0 0 512.306 512.306" style="enable-background:new 0 0 512.306 512.306;" xml:space="preserve">
<path style="fill:#FFD15C;" d="M232.84,30.4L102.706,137.067c-16,14.933-14.933,28.8-14.933,28.8l-1.067,103.467
	c3.2,42.667-8.533,72.533-22.4,91.733l91.733,84.267c25.6-25.6,52.267-60.8,52.267-60.8c58.667-76.8,35.2-126.933,35.2-126.933
	c-8.533-17.067-5.333-57.6-5.333-57.6c1.067-10.667,13.867-58.667,18.133-76.8c2.133-6.4,3.2-13.867,3.2-21.333
	c0-24.533-10.667-32-22.4-33.067c-3.2,0-6.4,0-8.533,0C233.906,48.533,236.04,33.6,232.84,30.4z"/>
<path style="fill:#40596B;" d="M181.64,460.267L137.906,507.2c-5.333,5.333-13.867,6.4-20.267,1.067L4.573,404.8
	c-5.333-5.333-6.4-13.867-1.067-20.267L47.24,337.6c5.333-6.4,14.933-6.4,20.267-1.067l113.067,104.533
	C186.973,446.4,186.973,454.933,181.64,460.267z"/>
<path style="fill:#F8B64C;" d="M211.506,61.333c0,0-22.4,37.333-40.533,99.2c0,0-14.933,60.8-21.333,72.533
	C148.573,233.067,210.44,180.8,211.506,61.333z"/>
<path style="fill:#CDD6E0;" d="M493.106,0.533H199.773c-10.667,0-19.2,8.533-19.2,19.2v179.2c0,10.667,8.533,19.2,19.2,19.2h293.333
	c10.667,0,19.2-8.533,19.2-19.2v-179.2C512.306,9.067,503.773,0.533,493.106,0.533z"/>
<rect x="221.106" y="125.333" style="fill:#334A5E;" width="124.8" height="23.467"/>
<rect x="179.506" y="38.933" style="fill:#40596B;" width="332.8" height="43.733"/>
<path style="fill:#FFD15C;" d="M144.306,257.6c0,0,16-21.333,19.2-30.933c0,0,21.333-56.533,24.533-73.6c0,0,5.333-41.6,19.2-68.267
	c6.4-10.667,18.133-18.133,30.933-16c10.667,1.067,22.4,8.533,22.4,33.067c0,7.467-1.067,13.867-3.2,21.333
	c-5.333,18.133-18.133,66.133-18.133,76.8c0,0-3.2,40.533,5.333,57.6c0,0,23.467,50.133-35.2,126.933L144.306,257.6z"/>
<path style="fill:#F2F2F2;" d="M239.24,125.333c5.333-2.133,9.6-6.4,10.667-11.733c1.067-4.267,1.067-8.533,1.067-10.667
	c0-22.4-10.667-23.467-13.867-24.533c-7.467-1.067-13.867,2.133-19.2,7.467c-1.067,1.067-2.133,3.2-3.2,4.267
	c-2.133,4.267-4.267,8.533-6.4,13.867c-1.067,3.2-1.067,6.4,0,9.6C215.773,126.4,226.44,129.6,239.24,125.333z"/>
<circle style="fill:#FF7058;" cx="406.706" cy="148.8" r="33.067"/>
<circle style="fill:#FFD15C;" cx="453.64" cy="148.8" r="33.067"/>
<g>
</g>
<g>
</g>
<g>
</g>
<g>
</g>
<g>
</g>
<g>
</g>
<g>
</g>
<g>
</g>
<g>
</g>
<g>
</g>
<g>
</g>
<g>
</g>
<g>
</g>
<g>
</g>
<g>
</g>
</svg>
