<?xml version="1.0" encoding="iso-8859-1"?>
<!-- Generator: Adobe Illustrator 19.0.0, SVG Export Plug-In . SVG Version: 6.00 Build 0)  -->
<svg version="1.1" id="Capa_1" xmlns="http://www.w3.org/2000/svg" xmlns:xlink="http://www.w3.org/1999/xlink" x="0px" y="0px"
	 viewBox="0 0 496 496" style="enable-background:new 0 0 496 496;" xml:space="preserve">
<g>
	<circle style="fill:#FFCB57;" cx="104" cy="320" r="64"/>
	<path style="fill:#FFCB57;" d="M280,96h192c8.84,0,16,7.16,16,16v112c0,8.84-7.16,16-16,16H280c-8.84,0-16-7.16-16-16V112
		C264,103.16,271.16,96,280,96z"/>
</g>
<g>
	<polygon style="fill:#3F3A34;" points="475.656,67.888 472,61.784 472,0 456,0 456,66.216 461.936,76.112 	"/>
	<path style="fill:#3F3A34;" d="M480,276c0,6.616-5.384,12-12,12s-12-5.384-12-12v-12h-16v12v16c0,6.616-5.384,12-12,12
		s-12-5.384-12-12v-28h-16v28v16c0,6.616-5.384,12-12,12s-12-5.384-12-12v-16v-28h-16v28c0,6.616-5.384,12-12,12s-12-5.384-12-12
		v-28h-16v28c0,15.44,12.56,28,28,28c4.896,0,9.424-1.376,13.432-3.584C365.032,327.728,375.512,336,388,336
		s22.968-8.272,26.568-19.584C418.576,318.624,423.104,320,428,320c12.488,0,22.968-8.272,26.568-19.584
		C458.576,302.624,463.104,304,468,304c15.44,0,28-12.56,28-28v-12h-16V276z"/>
	<polygon style="fill:#3F3A34;" points="360,60.28 360,0 344,0 344,51.72 315.56,70.672 324.44,83.992 	"/>
	<path style="fill:#3F3A34;" d="M112,281.472V272H96v9.472c-9.288,3.312-16,12.112-16,22.528c0,13.232,10.768,24,24,24
		c4.416,0,8,3.592,8,8s-3.584,8-8,8s-8-3.592-8-8v-8H80v8c0,10.416,6.712,19.216,16,22.528V368h16v-9.472
		c9.288-3.312,16-12.112,16-22.528c0-13.232-10.768-24-24-24c-4.416,0-8-3.592-8-8s3.584-8,8-8s8,3.592,8,8v8h16v-8
		C128,293.584,121.288,284.784,112,281.472z"/>
	<path style="fill:#3F3A34;" d="M16,220c0-6.616,5.384-12,12-12s12,5.384,12,12v36h16v-36v-16c0-6.616,5.384-12,12-12
		s12,5.384,12,12v28h16v-28v-16c0-6.616,5.384-12,12-12s12,5.384,12,12v16v28h16v-28c0-6.616,5.384-12,12-12s12,5.384,12,12v60h16
		v-60c0-15.44-12.56-28-28-28c-4.896,0-9.424,1.376-13.432,3.584C130.968,168.272,120.488,160,108,160s-22.968,8.272-26.568,19.584
		C77.424,177.376,72.896,176,68,176c-12.488,0-22.968,8.272-26.568,19.584C37.424,193.376,32.896,192,28,192
		c-15.44,0-28,12.56-28,28v174.216l24,40V496h16v-66.216l-24-40V220z"/>
	<path style="fill:#3F3A34;" d="M211.76,272h-1.64c-8.84,0-17.288,4.224-22.584,11.296L173.6,301.872
		C165.528,270.936,137.432,248,104,248c-39.704,0-72,32.304-72,72s32.296,72,72,72s72-32.304,72-72h4l20.328-27.104
		c2.296-3.064,5.96-4.896,9.792-4.896h1.64c6.752,0,12.24,5.496,12.24,12.24c0,1.504-0.272,2.984-0.824,4.392l-37.736,98.12
		L136,435.72V496h16v-51.72l46.552-31.032l39.56-102.872c1.256-3.256,1.888-6.664,1.888-10.136C240,284.664,227.328,272,211.76,272z
		 M104,376c-30.872,0-56-25.12-56-56s25.128-56,56-56s56,25.12,56,56S134.872,376,104,376z"/>
	<path style="fill:#3F3A34;" d="M472,88H280c-13.232,0-24,10.768-24,24v112c0,13.232,10.768,24,24,24h192c13.232,0,24-10.768,24-24
		V112C496,98.768,485.232,88,472,88z M280,104h192c4.416,0,8,3.592,8,8v8H272v-8C272,107.592,275.584,104,280,104z M472,232H280
		c-4.416,0-8-3.592-8-8v-88h208v88C480,228.408,476.416,232,472,232z"/>
	<path style="fill:#3F3A34;" d="M432,152c-5.712,0-11.24,1.56-16.096,4.4C411.2,153.68,405.816,152,400,152
		c-17.648,0-32,14.352-32,32s14.352,32,32,32c5.816,0,11.2-1.68,15.904-4.4c4.856,2.84,10.384,4.4,16.096,4.4
		c17.648,0,32-14.352,32-32S449.648,152,432,152z M384,184c0-8.824,7.176-16,16-16s16,7.176,16,16s-7.176,16-16,16
		S384,192.824,384,184z M432,200c-1.408,0-2.784-0.248-4.12-0.608c2.544-4.584,4.12-9.784,4.12-15.392s-1.576-10.808-4.12-15.392
		c1.336-0.36,2.712-0.608,4.12-0.608c8.824,0,16,7.176,16,16S440.824,200,432,200z"/>
</g>
<g>
	<polygon style="fill:#E56565;" points="10.376,72 56,72 56,160 72,160 72,56 53.624,56 88,26.536 122.376,56 104,56 104,144 
		120,144 120,72 165.624,72 88,5.464 	"/>
	<polygon style="fill:#E56565;" points="440,424 440,336 424,336 424,440 442.376,440 408,469.464 373.624,440 392,440 392,352 
		376,352 376,424 330.376,424 408,490.536 485.624,424 	"/>
</g>
<g>
</g>
<g>
</g>
<g>
</g>
<g>
</g>
<g>
</g>
<g>
</g>
<g>
</g>
<g>
</g>
<g>
</g>
<g>
</g>
<g>
</g>
<g>
</g>
<g>
</g>
<g>
</g>
<g>
</g>
</svg>
